<svg width="90" height="101" viewBox="0 0 90 101" fill="none" xmlns="http://www.w3.org/2000/svg">
<path fill-rule="evenodd" clip-rule="evenodd" d="M58.9236 10.8357H79.5176C84.9371 10.8357 89.3712 15.3088 89.3712 20.7759V90.3572C89.3712 95.8243 84.9371 100.297 79.5176 100.297H10.5425C5.12308 100.297 0.688965 95.8243 0.688965 90.3572V20.7759C0.688965 15.3088 5.12308 10.8357 10.5425 10.8357H31.1365C33.2058 5.07038 38.6253 0.895508 45.0301 0.895508C51.4349 0.895508 56.8544 5.07038 58.9236 10.8357ZM49.9568 15.8058C49.9568 13.0722 47.7398 10.8357 45.03 10.8357C42.3203 10.8357 40.1032 13.0722 40.1032 15.8058C40.1032 18.5393 42.3203 20.7759 45.03 20.7759C47.7398 20.7759 49.9568 18.5393 49.9568 15.8058ZM45.0301 30.7161C53.2085 30.7161 59.8104 37.376 59.8104 45.6263C59.8104 53.8767 53.2085 60.5366 45.0301 60.5366C36.8516 60.5366 30.2497 53.8767 30.2497 45.6263C30.2497 37.376 36.8516 30.7161 45.0301 30.7161ZM15.4693 83.399V90.3571H74.5908V83.399C74.5908 73.4588 54.8837 67.9917 45.0301 67.9917C35.1765 67.9917 15.4693 73.4588 15.4693 83.399Z" fill="#D3D3D3"/>
</svg>
