<svg width="38" height="38" viewBox="0 0 38 38" fill="none" xmlns="http://www.w3.org/2000/svg">
<path fill-rule="evenodd" clip-rule="evenodd" d="M23.465 6.33341H30.0833C31.825 6.33341 33.25 7.75841 33.25 9.50008V31.6667C33.25 33.4084 31.825 34.8334 30.0833 34.8334H7.91667C6.175 34.8334 4.75 33.4084 4.75 31.6667V9.50008C4.75 7.75841 6.175 6.33341 7.91667 6.33341H14.535C15.2 4.49675 16.9417 3.16675 19 3.16675C21.0583 3.16675 22.8 4.49675 23.465 6.33341ZM20.5833 7.91675C20.5833 7.04591 19.8708 6.33341 19 6.33341C18.1292 6.33341 17.4167 7.04591 17.4167 7.91675C17.4167 8.78758 18.1292 9.50008 19 9.50008C19.8708 9.50008 20.5833 8.78758 20.5833 7.91675ZM19 12.6667C21.6283 12.6667 23.75 14.7884 23.75 17.4167C23.75 20.0451 21.6283 22.1667 19 22.1667C16.3717 22.1667 14.25 20.0451 14.25 17.4167C14.25 14.7884 16.3717 12.6667 19 12.6667ZM9.5 29.4501V31.6667H28.5V29.4501C28.5 26.2834 22.1667 24.5417 19 24.5417C15.8333 24.5417 9.5 26.2834 9.5 29.4501Z" fill="#282828"/>
</svg>
