<svg width="30" height="30" viewBox="0 0 30 30" fill="none" xmlns="http://www.w3.org/2000/svg">
<path d="M5.23257 22.2056L11.8576 15.5806L15.9201 19.6431C16.4326 20.1556 17.2576 20.1306 17.7326 19.5931L26.6951 9.50563C27.1326 9.01813 27.1076 8.26813 26.6451 7.79313C26.1451 7.29313 25.3076 7.30563 24.8326 7.84313L16.8451 16.8181L12.7326 12.7056C12.499 12.4716 12.182 12.34 11.8513 12.34C11.5207 12.34 11.2036 12.4716 10.9701 12.7056L3.35757 20.3306C2.87007 20.8181 2.87007 21.6056 3.35757 22.0931L3.47007 22.2056C3.95757 22.6931 4.75757 22.6931 5.23257 22.2056Z" fill="#282828"/>
</svg>
