<svg width="35" height="35" viewBox="0 0 35 35" fill="none" xmlns="http://www.w3.org/2000/svg">
<g clip-path="url(#clip0)">
<path d="M20.7813 4.375H4.01042C1.79375 4.375 0 6.16875 0 8.38542V26.6146C0 28.8312 1.79375 30.625 4.01042 30.625H13.6208C12.8333 28.9625 12.3958 27.1104 12.3958 25.1562L12.4104 24.7917H5.46875C4.87083 24.7917 4.375 24.2958 4.375 23.6979C4.375 23.1 4.87083 22.6042 5.46875 22.6042H12.6583C12.8333 21.7146 13.1104 20.8542 13.4604 20.0521H5.46875C4.87083 20.0521 4.375 19.5562 4.375 18.9583C4.375 18.3604 4.87083 17.8646 5.46875 17.8646H14.7C15.3563 16.9167 16.1583 16.0562 17.0479 15.3125H5.46875C4.87083 15.3125 4.375 14.8167 4.375 14.2188C4.375 13.6208 4.87083 13.125 5.46875 13.125H19.3229C19.6292 13.125 19.8917 13.2417 20.0958 13.4458C21.5396 12.8188 23.1292 12.4542 24.7917 12.4104V8.38542C24.7917 6.16875 22.9979 4.375 20.7813 4.375Z" fill="#5A5A5A"/>
<path d="M17.8645 2.91667H16.2603C15.7791 1.23958 14.2333 0 12.3958 0C10.5583 0 9.01242 1.23958 8.53117 2.91667H6.927C6.32909 2.91667 5.83325 3.4125 5.83325 4.01042V6.92708C5.83325 8.32708 6.98534 9.47917 8.38534 9.47917H16.4062C17.8062 9.47917 18.9583 8.32708 18.9583 6.92708V4.01042C18.9583 3.4125 18.4624 2.91667 17.8645 2.91667Z" fill="#474747"/>
<path d="M20.0958 13.4458C18.9875 13.9271 17.9667 14.5556 17.0479 15.3125H5.46875C4.87083 15.3125 4.375 14.8167 4.375 14.2188C4.375 13.6208 4.87083 13.125 5.46875 13.125H19.3229C19.6292 13.125 19.8917 13.2417 20.0958 13.4458Z" fill="white"/>
<path d="M14.7 17.8647C14.2188 18.5502 13.7958 19.2793 13.4604 20.0522H5.46875C4.87083 20.0522 4.375 19.5564 4.375 18.9585C4.375 18.3606 4.87083 17.8647 5.46875 17.8647H14.7Z" fill="white"/>
<path d="M12.6583 22.604C12.5125 23.3186 12.425 24.0478 12.4104 24.7915H5.46875C4.87083 24.7915 4.375 24.2957 4.375 23.6978C4.375 23.0998 4.87083 22.604 5.46875 22.604H12.6583Z" fill="white"/>
<path d="M5.83333 4.375H4.01042C1.79375 4.375 0 6.16875 0 8.38542V26.6146C0 28.8313 1.79375 30.625 4.01042 30.625H12.3958V25.1562V24.7917H5.46875C4.87083 24.7917 4.375 24.2958 4.375 23.6979C4.375 23.1 4.87083 22.6042 5.46875 22.6042H12.3958V20.0521H5.46875C4.87083 20.0521 4.375 19.5563 4.375 18.9583C4.375 18.3604 4.87083 17.8646 5.46875 17.8646H12.3958V15.3125H5.46875C4.87083 15.3125 4.375 14.8167 4.375 14.2188C4.375 13.6208 4.87083 13.125 5.46875 13.125H12.3958V9.47917H8.38542C6.98542 9.47917 5.83333 8.32708 5.83333 6.92708V4.375Z" fill="#393939"/>
<path d="M12.3958 0C10.5583 0 9.01242 1.23958 8.53117 2.91667H6.927C6.32909 2.91667 5.83325 3.4125 5.83325 4.01042V4.375V6.92708C5.83325 8.32708 6.98534 9.47917 8.38534 9.47917H12.3958V0Z" fill="#2C2C2C"/>
<path d="M12.3958 13.125H5.46875C4.87083 13.125 4.375 13.6208 4.375 14.2188C4.375 14.8167 4.87083 15.3125 5.46875 15.3125H12.3958V13.125Z" fill="#DEDEDE"/>
<path d="M12.3958 17.8647H5.46875C4.87083 17.8647 4.375 18.3606 4.375 18.9585C4.375 19.5564 4.87083 20.0522 5.46875 20.0522H12.3958V17.8647Z" fill="#DEDEDE"/>
<path d="M12.3958 22.604H5.46875C4.87083 22.604 4.375 23.0998 4.375 23.6978C4.375 24.2957 4.87083 24.7915 5.46875 24.7915H12.3958V22.604Z" fill="#DEDEDE"/>
<path d="M25.1562 35C19.7283 35 15.3125 30.5856 15.3125 25.1562C15.3125 19.7269 19.7283 15.3125 25.1562 15.3125C30.5842 15.3125 35 19.7269 35 25.1562C35 30.5856 30.5842 35 25.1562 35Z" fill="#4CAF50"/>
<path d="M23.6979 29.5313C23.3114 29.5313 22.941 29.3767 22.6668 29.104L19.7502 26.1874C19.18 25.6172 19.18 24.6955 19.7502 24.1253C20.3204 23.5551 21.242 23.5551 21.8122 24.1253L23.6264 25.9394L27.7039 21.2801C28.2348 20.6763 29.155 20.6122 29.7616 21.143C30.3683 21.6724 30.4281 22.5926 29.8987 23.1992L24.7945 29.0326C24.5291 29.3374 24.15 29.5167 23.746 29.5313H23.6979Z" fill="white"/>
<path d="M25.1562 15.3125C19.7283 15.3125 15.3125 19.7269 15.3125 25.1562C15.3125 30.5856 19.7283 35 25.1562 35V28.6198L24.7946 29.0325C24.5292 29.3373 24.15 29.5167 23.746 29.5312H23.6979C23.3115 29.5312 22.941 29.3767 22.6669 29.104L19.7502 26.1873C19.18 25.6171 19.18 24.6954 19.7502 24.1252C20.0346 23.8408 20.4079 23.6979 20.7812 23.6979C21.1546 23.6979 21.5279 23.8408 21.8123 24.1252L23.6265 25.9394L25.1562 24.1908V15.3125Z" fill="#429846"/>
<path d="M20.7812 23.6978C20.4079 23.6978 20.0345 23.8407 19.7502 24.125C19.18 24.6953 19.18 25.6169 19.7502 26.1871L22.6668 29.1038C22.941 29.378 23.3114 29.5311 23.6979 29.5311H23.746C24.15 29.5165 24.5291 29.3371 24.7945 29.0323L25.1562 28.6196V24.1907L23.6264 25.9392L21.8122 24.125C21.5279 23.8407 21.1545 23.6978 20.7812 23.6978Z" fill="#DEDEDE"/>
</g>
<defs>
<clipPath id="clip0">
<rect width="35" height="35" fill="white"/>
</clipPath>
</defs>
</svg>
