<svg width="35" height="35" viewBox="0 0 35 35" fill="none" xmlns="http://www.w3.org/2000/svg">
<path d="M20.3891 4.29248H3.93473C1.7599 4.29248 0 6.05238 0 8.22721V26.1123C0 28.2872 1.7599 30.0471 3.93473 30.0471H13.3638C12.5911 28.416 12.1619 26.5988 12.1619 24.6815L12.1762 24.3238C12.1905 23.5941 12.2764 22.8787 12.4194 22.1776C12.5911 21.3048 12.8644 20.4606 13.2078 19.6737H5.36554C4.77891 19.6737 4.29243 19.1872 4.29243 18.6006C4.29243 18.014 4.77891 17.5275 5.36554 17.5275H14.4083C15.0664 16.5975 15.8391 15.7533 16.7104 15.0236H5.36554C4.77891 15.0236 4.29243 14.5371 4.29243 13.9505C4.29243 13.3638 4.77891 12.8773 5.36554 12.8773H18.9582C19.2587 12.8773 19.5163 12.9918 19.7166 13.1921C21.1331 12.5769 22.6927 12.2192 24.3238 12.1762V8.22721C24.3238 6.05238 22.5639 4.29248 20.3891 4.29248Z" fill="#5A5A5A"/>
<path d="M17.5273 2.86162H15.9534C15.4813 1.21619 13.9646 0 12.1618 0C10.359 0 8.84231 1.21619 8.37014 2.86162H6.79625C6.20962 2.86162 5.72314 3.3481 5.72314 3.93473V6.79635C5.72314 8.16993 6.85349 9.30027 8.22706 9.30027H16.0965C17.4701 9.30027 18.6004 8.16993 18.6004 6.79635V3.93473C18.6004 3.3481 18.114 2.86162 17.5273 2.86162Z" fill="#474747"/>
<path d="M19.7166 13.1922C18.6292 13.6644 17.6133 14.2796 16.7119 15.0237H5.36559C4.77896 15.0237 4.29248 14.5372 4.29248 13.9505C4.29248 13.3639 4.77896 12.8774 5.36559 12.8774H18.9583C19.2588 12.8774 19.5163 12.9919 19.7166 13.1922Z" fill="white"/>
<path d="M14.4083 17.5278C13.9361 18.2003 13.5355 18.9157 13.2064 19.674H5.36559C4.77896 19.674 4.29248 19.1876 4.29248 18.6009C4.29248 18.0143 4.77896 17.5278 5.36559 17.5278H14.4083Z" fill="white"/>
<path d="M12.4195 22.1777C12.2764 22.8788 12.1906 23.5942 12.1762 24.324H5.36559C4.77896 24.324 4.29248 23.8375 4.29248 23.2508C4.29248 22.6642 4.77896 22.1777 5.36559 22.1777H12.4195Z" fill="white"/>
<path d="M5.72324 4.29248H3.93473C1.7599 4.29248 0 6.05238 0 8.22721V26.1123C0 28.2872 1.7599 30.0471 3.93473 30.0471H12.1619V24.6815V24.3238H5.36554C4.77891 24.3238 4.29243 23.8374 4.29243 23.2507C4.29243 22.6641 4.77891 22.1776 5.36554 22.1776H12.1619V19.6737H5.36554C4.77891 19.6737 4.29243 19.1872 4.29243 18.6006C4.29243 18.014 4.77891 17.5275 5.36554 17.5275H12.1619V15.0236H5.36554C4.77891 15.0236 4.29243 14.5371 4.29243 13.9505C4.29243 13.3638 4.77891 12.8773 5.36554 12.8773H12.1619V9.30032H8.22716C6.85359 9.30032 5.72324 8.16998 5.72324 6.7964V4.29248Z" fill="#393939"/>
<path d="M12.1618 0C10.359 0 8.84231 1.21619 8.37014 2.86162H6.79625C6.20962 2.86162 5.72314 3.3481 5.72314 3.93473V4.29243V6.79635C5.72314 8.16993 6.85349 9.30027 8.22706 9.30027H12.1618V0Z" fill="#2C2C2C"/>
<path d="M12.1619 12.8774H5.36559C4.77896 12.8774 4.29248 13.3639 4.29248 13.9505C4.29248 14.5372 4.77896 15.0237 5.36559 15.0237H12.1619V12.8774Z" fill="#DEDEDE"/>
<path d="M12.1619 17.5273H5.36559C4.77896 17.5273 4.29248 18.0138 4.29248 18.6005C4.29248 19.1871 4.77896 19.6736 5.36559 19.6736H12.1619V17.5273Z" fill="#DEDEDE"/>
<path d="M12.1619 22.1777H5.36559C4.77896 22.1777 4.29248 22.6642 4.29248 23.2508C4.29248 23.8375 4.77896 24.324 5.36559 24.324H12.1619V22.1777Z" fill="#DEDEDE"/>
<path d="M24.6814 34.3394C19.3559 34.3394 15.0234 30.0083 15.0234 24.6814C15.0234 19.3545 19.3559 15.0234 24.6814 15.0234C30.0069 15.0234 34.3394 19.3545 34.3394 24.6814C34.3394 30.0083 30.0069 34.3394 24.6814 34.3394Z" fill="#F44336"/>
<path d="M22.1775 28.6164C21.8112 28.6164 21.4449 28.4762 21.1659 28.1972C20.6065 27.6377 20.6065 26.7335 21.1659 26.174L26.1738 21.1662C26.7332 20.6067 27.6375 20.6067 28.1969 21.1662C28.7564 21.7256 28.7564 22.6299 28.1969 23.1893L23.1891 28.1972C22.9101 28.4762 22.5438 28.6164 22.1775 28.6164Z" fill="white"/>
<path d="M27.1853 28.6164C26.8191 28.6164 26.4528 28.4762 26.1738 28.1972L21.1659 23.1893C20.6065 22.6299 20.6065 21.7256 21.1659 21.1662C21.7254 20.6067 22.6296 20.6067 23.1891 21.1662L28.1969 26.174C28.7564 26.7335 28.7564 27.6377 28.1969 28.1972C27.9179 28.4762 27.5516 28.6164 27.1853 28.6164Z" fill="white"/>
<path d="M24.6814 15.0234C19.3559 15.0234 15.0234 19.3545 15.0234 24.6814C15.0234 30.0083 19.3559 34.3394 24.6814 34.3394V26.7046L23.1891 28.1969C22.9101 28.4759 22.5438 28.6161 22.1775 28.6161C21.8112 28.6161 21.4449 28.4759 21.1659 28.1969C20.6065 27.6375 20.6065 26.7332 21.1659 26.1737L22.6582 24.6814L21.1659 23.1891C20.6065 22.6296 20.6065 21.7254 21.1659 21.1659C21.4449 20.8869 21.8112 20.7467 22.1775 20.7467C22.5438 20.7467 22.9101 20.8869 23.1891 21.1659L24.6814 22.6582V15.0234Z" fill="#D43A2F"/>
<path d="M22.6583 24.6816L21.1659 26.174C20.6065 26.7334 20.6065 27.6377 21.1659 28.1971C21.4449 28.4762 21.8112 28.6164 22.1775 28.6164C22.5438 28.6164 22.9101 28.4762 23.1891 28.1971L24.6814 26.7048L22.6583 24.6816Z" fill="#DEDEDE"/>
<path d="M22.1775 20.7466C21.8112 20.7466 21.4449 20.8868 21.1659 21.1658C20.6065 21.7253 20.6065 22.6295 21.1659 23.189L22.6583 24.6813L24.6814 26.7045V22.6581L23.1891 21.1658C22.9101 20.8868 22.5438 20.7466 22.1775 20.7466Z" fill="#DEDEDE"/>
</svg>
