<svg width="36" height="36" viewBox="0 0 36 36" fill="none" xmlns="http://www.w3.org/2000/svg">
<g id="bar_chart_24px">
<path id="icon/editor/bar_chart_24px" fill-rule="evenodd" clip-rule="evenodd" d="M18 7.5C19.155 7.5 20.1 8.445 20.1 9.6L20.1 26.4C20.1 27.555 19.155 28.5 18 28.5C16.845 28.5 15.9 27.555 15.9 26.4L15.9 9.6C15.9 8.445 16.845 7.5 18 7.5ZM9.6 13.8001H9.9C11.055 13.8001 12 14.7451 12 15.9001L12 26.4001C12 27.5551 11.055 28.5001 9.9 28.5001H9.6C8.445 28.5001 7.5 27.5551 7.5 26.4001L7.5 15.9001C7.5 14.7451 8.445 13.8001 9.6 13.8001ZM28.5 21.6C28.5 20.445 27.555 19.5 26.4 19.5C25.245 19.5 24.3 20.445 24.3 21.6V26.4C24.3 27.555 25.245 28.5 26.4 28.5C27.555 28.5 28.5 27.555 28.5 26.4V21.6Z" fill="#282828"/>
</g>
</svg>
