<svg width="35" height="35" viewBox="0 0 35 35" fill="none" xmlns="http://www.w3.org/2000/svg">
<g clip-path="url(#clip0)">
<path d="M20.7812 4.375H4.01042C1.79375 4.375 0 6.16875 0 8.38542V26.6146C0 28.8313 1.79375 30.625 4.01042 30.625H13.6208C12.8333 28.9625 12.3958 27.1104 12.3958 25.1562L12.4104 24.7917H5.46875C4.87083 24.7917 4.375 24.2958 4.375 23.6979C4.375 23.1 4.87083 22.6042 5.46875 22.6042H12.6583C12.8333 21.7146 13.1119 20.8542 13.4619 20.0521H5.46875C4.87083 20.0521 4.375 19.5563 4.375 18.9583C4.375 18.3604 4.87083 17.8646 5.46875 17.8646H14.6854C15.3562 16.9167 16.1438 16.0563 17.0319 15.3125H5.46875C4.87083 15.3125 4.375 14.8167 4.375 14.2188C4.375 13.6208 4.87083 13.125 5.46875 13.125H19.3229C19.6292 13.125 19.8917 13.2417 20.0958 13.4458C21.5396 12.8188 23.1292 12.4542 24.7917 12.4104V8.38542C24.7917 6.16875 22.9979 4.375 20.7812 4.375Z" fill="#5A5A5A"/>
<path d="M17.8645 2.91667H16.2603C15.7791 1.23958 14.2333 0 12.3958 0C10.5583 0 9.01242 1.23958 8.53117 2.91667H6.927C6.32909 2.91667 5.83325 3.4125 5.83325 4.01042V6.92708C5.83325 8.32708 6.98534 9.47917 8.38534 9.47917H16.4062C17.8062 9.47917 18.9583 8.32708 18.9583 6.92708V4.01042C18.9583 3.4125 18.4624 2.91667 17.8645 2.91667Z" fill="#474747"/>
<path d="M20.0958 13.4458C18.9875 13.9271 17.9521 14.5542 17.0333 15.3125H5.46875C4.87083 15.3125 4.375 14.8167 4.375 14.2188C4.375 13.6208 4.87083 13.125 5.46875 13.125H19.3229C19.6292 13.125 19.8917 13.2417 20.0958 13.4458Z" fill="white"/>
<path d="M14.6854 17.8643C14.2042 18.5497 13.7958 19.2788 13.4604 20.0518H5.46875C4.87083 20.0518 4.375 19.5559 4.375 18.958C4.375 18.3601 4.87083 17.8643 5.46875 17.8643H14.6854Z" fill="white"/>
<path d="M12.6583 22.6045C12.5125 23.3191 12.425 24.0482 12.4104 24.792H5.46875C4.87083 24.792 4.375 24.2962 4.375 23.6982C4.375 23.1003 4.87083 22.6045 5.46875 22.6045H12.6583Z" fill="white"/>
<path d="M5.83333 4.375H4.01042C1.79375 4.375 0 6.16875 0 8.38542V26.6146C0 28.8313 1.79375 30.625 4.01042 30.625H12.3958V25.1562V24.7917H5.46875C4.87083 24.7917 4.375 24.2958 4.375 23.6979C4.375 23.1 4.87083 22.6042 5.46875 22.6042H12.3958V20.0521H5.46875C4.87083 20.0521 4.375 19.5563 4.375 18.9583C4.375 18.3604 4.87083 17.8646 5.46875 17.8646H12.3958V15.3125H5.46875C4.87083 15.3125 4.375 14.8167 4.375 14.2188C4.375 13.6208 4.87083 13.125 5.46875 13.125H12.3958V9.47917H8.38542C6.98542 9.47917 5.83333 8.32708 5.83333 6.92708V4.375Z" fill="#393939"/>
<path d="M12.3957 0C10.5582 0 9.01242 1.23958 8.53117 2.91667H6.927C6.32909 2.91667 5.83325 3.4125 5.83325 4.01042V4.375V6.92708C5.83325 8.32708 6.98533 9.47917 8.38533 9.47917H12.3957V0Z" fill="#2C2C2C"/>
<path d="M12.3958 13.125H5.46875C4.87083 13.125 4.375 13.6208 4.375 14.2188C4.375 14.8167 4.87083 15.3125 5.46875 15.3125H12.3958V13.125Z" fill="#DEDEDE"/>
<path d="M12.3958 17.8643H5.46875C4.87083 17.8643 4.375 18.3601 4.375 18.958C4.375 19.5559 4.87083 20.0518 5.46875 20.0518H12.3958V17.8643Z" fill="#DEDEDE"/>
<path d="M12.3958 22.6045H5.46875C4.87083 22.6045 4.375 23.1003 4.375 23.6982C4.375 24.2962 4.87083 24.792 5.46875 24.792H12.3958V22.6045Z" fill="#DEDEDE"/>
<path d="M25.1562 35C19.7269 35 15.3125 30.5856 15.3125 25.1562C15.3125 19.7269 19.7269 15.3125 25.1562 15.3125C30.5856 15.3125 35 19.7269 35 25.1562C35 30.5856 30.5856 35 25.1562 35Z" fill="#4F4F4F"/>
<path d="M25.1562 30.6247C24.828 30.6247 24.5014 30.5153 24.233 30.2936L20.2226 27.0124C19.7443 26.6215 19.5649 25.9755 19.772 25.3951C19.9791 24.8147 20.5289 24.4268 21.1443 24.4268H29.1666C29.7835 24.4268 30.3333 24.8147 30.5389 25.3951C30.7474 25.9755 30.5666 26.623 30.0883 27.0124L26.0778 30.2936C25.811 30.5153 25.4843 30.6247 25.1562 30.6247Z" fill="white"/>
<path d="M25.1563 30.625C24.3499 30.625 23.698 29.9731 23.698 29.1667V21.1458C23.698 20.3394 24.3499 19.6875 25.1563 19.6875C25.9628 19.6875 26.6147 20.3394 26.6147 21.1458V29.1667C26.6147 29.9731 25.9628 30.625 25.1563 30.625Z" fill="white"/>
<path d="M25.1562 15.3125C19.7269 15.3125 15.3125 19.7269 15.3125 25.1562C15.3125 30.5856 19.7269 35 25.1562 35V30.625C25.1519 30.625 25.1475 30.625 25.1417 30.625H25.1402C25.1358 30.625 25.13 30.625 25.1256 30.625C24.764 30.6177 24.4358 30.4792 24.185 30.2546L20.2227 27.0127C19.7444 26.6219 19.565 25.9758 19.7721 25.3954C19.9792 24.815 20.529 24.4271 21.1444 24.4271H23.6965V21.1458C23.6965 20.3394 24.3483 19.6875 25.1548 19.6875V15.3125H25.1562Z" fill="#393939"/>
<path d="M25.1403 30.6247H25.1417H25.1403ZM23.698 24.4268H21.1459C20.529 24.4268 19.9792 24.8147 19.7736 25.3951C19.5651 25.9755 19.7444 26.623 20.2242 27.0124L24.1865 30.2543C23.8861 29.9874 23.698 29.5995 23.698 29.1663V24.4268Z" fill="#DEDEDE"/>
<path d="M25.1563 19.6875C24.3499 19.6875 23.698 20.3394 23.698 21.1458V24.4271V29.1667C23.698 29.5998 23.8861 29.9877 24.1851 30.2546C24.4359 30.4792 24.764 30.6177 25.1257 30.625H25.1403H25.1418H25.1563V19.6875Z" fill="#DEDEDE"/>
</g>
<defs>
<clipPath id="clip0">
<rect width="35" height="35" fill="white"/>
</clipPath>
</defs>
</svg>
