<svg width="35" height="35" viewBox="0 0 35 35" fill="none" xmlns="http://www.w3.org/2000/svg">
<g clip-path="url(#clip0)">
<path d="M20.7812 4.375H4.01042C1.79375 4.375 0 6.16875 0 8.38542V26.6146C0 28.8313 1.79375 30.625 4.01042 30.625H13.6208C12.8333 28.9625 12.3958 27.1104 12.3958 25.1562L12.4104 24.7917H5.46875C4.87083 24.7917 4.375 24.2958 4.375 23.6979C4.375 23.1 4.87083 22.6042 5.46875 22.6042H12.6583C12.8333 21.7146 13.1104 20.8542 13.4604 20.0521H5.46875C4.87083 20.0521 4.375 19.5563 4.375 18.9583C4.375 18.3604 4.87083 17.8646 5.46875 17.8646H14.7C15.3563 16.9167 16.1583 16.0563 17.0479 15.3125H5.46875C4.87083 15.3125 4.375 14.8167 4.375 14.2188C4.375 13.6208 4.87083 13.125 5.46875 13.125H19.3229C19.6292 13.125 19.8917 13.2417 20.0958 13.4458C21.5396 12.8188 23.1292 12.4542 24.7917 12.4104V8.38542C24.7917 6.16875 22.9979 4.375 20.7812 4.375Z" fill="#5A5A5A"/>
<path d="M17.8645 2.91667H16.2603C15.7791 1.23958 14.2333 0 12.3958 0C10.5583 0 9.01242 1.23958 8.53117 2.91667H6.927C6.32909 2.91667 5.83325 3.4125 5.83325 4.01042V6.92708C5.83325 8.32708 6.98534 9.47917 8.38534 9.47917H16.4062C17.8062 9.47917 18.9583 8.32708 18.9583 6.92708V4.01042C18.9583 3.4125 18.4624 2.91667 17.8645 2.91667Z" fill="#474747"/>
<path d="M20.0958 13.4458C18.9875 13.9271 17.9667 14.5556 17.0479 15.3125H5.46875C4.87083 15.3125 4.375 14.8167 4.375 14.2188C4.375 13.6208 4.87083 13.125 5.46875 13.125H19.3229C19.6292 13.125 19.8917 13.2417 20.0958 13.4458Z" fill="white"/>
<path d="M14.7 17.8647C14.2188 18.5502 13.7958 19.2793 13.4604 20.0522H5.46875C4.87083 20.0522 4.375 19.5564 4.375 18.9585C4.375 18.3606 4.87083 17.8647 5.46875 17.8647H14.7Z" fill="white"/>
<path d="M12.6583 22.604C12.5125 23.3186 12.425 24.0478 12.4104 24.7915H5.46875C4.87083 24.7915 4.375 24.2957 4.375 23.6978C4.375 23.0998 4.87083 22.604 5.46875 22.604H12.6583Z" fill="white"/>
<path d="M5.83333 4.375H4.01042C1.79375 4.375 0 6.16875 0 8.38542V26.6146C0 28.8313 1.79375 30.625 4.01042 30.625H12.2354V24.7917H5.46875C4.87083 24.7917 4.375 24.2958 4.375 23.6979C4.375 23.1 4.87083 22.6042 5.46875 22.6042H12.2354V20.0521H5.46875C4.87083 20.0521 4.375 19.5563 4.375 18.9583C4.375 18.3604 4.87083 17.8646 5.46875 17.8646H12.2354V15.3125H5.46875C4.87083 15.3125 4.375 14.8167 4.375 14.2188C4.375 13.6208 4.87083 13.125 5.46875 13.125H12.2354V9.47917H8.38542C6.98542 9.47917 5.83333 8.32708 5.83333 6.92708V4.375Z" fill="#393939"/>
<path d="M12.2353 0.00292969C10.4693 0.0729297 8.99929 1.28772 8.53117 2.91668H6.927C6.32909 2.91668 5.83325 3.41251 5.83325 4.01043V4.37501V6.9271C5.83325 8.3271 6.98534 9.47918 8.38533 9.47918H12.2353V0.00292969Z" fill="#2C2C2C"/>
<path d="M12.2354 13.125H5.46875C4.87083 13.125 4.375 13.6208 4.375 14.2188C4.375 14.8167 4.87083 15.3125 5.46875 15.3125H12.2354V13.125Z" fill="#DEDEDE"/>
<path d="M12.2354 17.8647H5.46875C4.87083 17.8647 4.375 18.3606 4.375 18.9585C4.375 19.5564 4.87083 20.0522 5.46875 20.0522H12.2354V17.8647Z" fill="#DEDEDE"/>
<path d="M12.2354 22.604H5.46875C4.87083 22.604 4.375 23.0998 4.375 23.6978C4.375 24.2957 4.87083 24.7915 5.46875 24.7915H12.2354V22.604Z" fill="#DEDEDE"/>
<path d="M25.1562 35C19.7283 35 15.3125 30.5856 15.3125 25.1562C15.3125 19.7269 19.7283 15.3125 25.1562 15.3125C30.5842 15.3125 35 19.7269 35 25.1562C35 30.5856 30.5842 35 25.1562 35Z" fill="#2196F3"/>
<path d="M25.1563 30.625C24.3513 30.625 23.698 29.9731 23.698 29.1667V21.1458C23.698 20.3394 24.3513 19.6875 25.1563 19.6875C25.9613 19.6875 26.6147 20.3394 26.6147 21.1458V29.1667C26.6147 29.9731 25.9613 30.625 25.1563 30.625Z" fill="white"/>
<path d="M29.1667 26.6144H21.1458C20.3408 26.6144 19.6875 25.9625 19.6875 25.1561C19.6875 24.3496 20.3408 23.6978 21.1458 23.6978H29.1667C29.9717 23.6978 30.625 24.3496 30.625 25.1561C30.625 25.9625 29.9717 26.6144 29.1667 26.6144Z" fill="white"/>
<path d="M25.1562 15.3125C19.7283 15.3125 15.3125 19.7269 15.3125 25.1562C15.3125 30.5856 19.7283 35 25.1562 35V30.625C24.3513 30.625 23.6979 29.9731 23.6979 29.1667V26.6146H21.1458C20.3408 26.6146 19.6875 25.9627 19.6875 25.1562C19.6875 24.3498 20.3408 23.6979 21.1458 23.6979H23.6979V21.1458C23.6979 20.3394 24.3513 19.6875 25.1562 19.6875V15.3125Z" fill="#1D83D4"/>
<path d="M25.1563 26.6146H23.698V29.1667C23.698 29.9731 24.3513 30.625 25.1563 30.625V26.6146ZM25.1563 19.6875C24.3513 19.6875 23.698 20.3394 23.698 21.1458V23.6979H25.1563V19.6875Z" fill="#DEDEDE"/>
<path d="M25.1562 23.6978H23.6979H21.1458C20.3408 23.6978 19.6875 24.3496 19.6875 25.1561C19.6875 25.9625 20.3408 26.6144 21.1458 26.6144H23.6979H25.1562V23.6978Z" fill="#DEDEDE"/>
</g>
<defs>
<clipPath id="clip0">
<rect width="35" height="35" fill="white"/>
</clipPath>
</defs>
</svg>
