<svg width="30" height="30" viewBox="0 0 30 30" fill="none" xmlns="http://www.w3.org/2000/svg">
<g id="table_chart_24px">
<path id="icon/editor/table_chart_24px" fill-rule="evenodd" clip-rule="evenodd" d="M24.375 3.75L5.625 3.75C4.25 3.75 3.125 4.875 3.125 6.25L3.125 10L26.875 10V6.25C26.875 4.875 25.75 3.75 24.375 3.75ZM24.375 26.25H20.625L20.625 12.5H26.875L26.875 23.75C26.875 25.125 25.75 26.25 24.375 26.25ZM18.125 12.525H11.875L11.875 26.25L18.125 26.25L18.125 12.525ZM5.625 26.25C4.25 26.25 3.125 25.125 3.125 23.75L3.125 12.5L9.375 12.5L9.375 26.25H5.625Z" fill="#282828"/>
</g>
</svg>
