<svg width="38" height="38" viewBox="0 0 38 38" fill="none" xmlns="http://www.w3.org/2000/svg">
<g id="upload_24px">
<path id="icon/file/upload_24px" fill-rule="evenodd" clip-rule="evenodd" d="M22.1668 25.8024H15.8335C14.9626 25.8024 14.2501 25.0899 14.2501 24.219V16.3024H11.7326C10.3235 16.3024 9.62678 14.5924 10.6243 13.5949L17.8918 6.32736C18.1876 6.03088 18.5892 5.86426 19.008 5.86426C19.4269 5.86426 19.8285 6.03088 20.1243 6.32736L27.3918 13.5949C28.3893 14.5924 27.6768 16.3024 26.2676 16.3024H23.7501V24.219C23.7501 25.0899 23.0376 25.8024 22.1668 25.8024ZM28.5001 28.9691H9.80808C8.62925 28.9691 7.91675 29.6816 7.91675 30.5524C7.91675 31.4232 8.62925 32.1357 9.80808 32.1357H28.5001C29.3709 32.1357 30.0834 31.4232 30.0834 30.5524C30.0834 29.6816 29.3709 28.9691 28.5001 28.9691Z" fill="#282828"/>
</g>
</svg>
