<svg width="40" height="40" viewBox="0 0 40 40" fill="none" xmlns="http://www.w3.org/2000/svg">
<rect width="40" height="40" rx="8" fill="#EF5555"/>
<path d="M20 6.6665C12.6266 6.6665 6.66663 12.6265 6.66663 19.9998C6.66663 27.3732 12.6266 33.3332 20 33.3332C27.3733 33.3332 33.3333 27.3732 33.3333 19.9998C33.3333 12.6265 27.3733 6.6665 20 6.6665Z" fill="#EF5555"/>
<path d="M25.7332 25.7336C25.2132 26.2536 24.3732 26.2536 23.8532 25.7336L19.9999 21.8803L16.1466 25.7336C15.6266 26.2536 14.7866 26.2536 14.2666 25.7336C14.0169 25.4845 13.8766 25.1463 13.8766 24.7936C13.8766 24.4409 14.0169 24.1027 14.2666 23.8536L18.1199 20.0003L14.2666 16.147C14.0169 15.8978 13.8766 15.5596 13.8766 15.207C13.8766 14.8543 14.0169 14.5161 14.2666 14.267C14.7866 13.747 15.6266 13.747 16.1466 14.267L19.9999 18.1203L23.8532 14.267C24.3732 13.747 25.2132 13.747 25.7332 14.267C26.2532 14.787 26.2532 15.627 25.7332 16.147L21.8799 20.0003L25.7332 23.8536C26.2399 24.3603 26.2399 25.2136 25.7332 25.7336Z" fill="#F8F8F8"/>
</svg>
