<svg width="34" height="34" viewBox="0 0 34 34" fill="none" xmlns="http://www.w3.org/2000/svg">
<path d="M24.8749 9.13738C24.6414 8.90332 24.3243 8.77178 23.9937 8.77178C23.663 8.77178 23.3459 8.90332 23.1124 9.13738L16.9999 15.2374L10.8874 9.12488C10.6539 8.89082 10.3368 8.75928 10.0062 8.75928C9.67551 8.75928 9.35844 8.89082 9.1249 9.12488C8.6374 9.61238 8.6374 10.3999 9.1249 10.8874L15.2374 16.9999L9.1249 23.1124C8.6374 23.5999 8.6374 24.3874 9.1249 24.8749C9.6124 25.3624 10.3999 25.3624 10.8874 24.8749L16.9999 18.7624L23.1124 24.8749C23.5999 25.3624 24.3874 25.3624 24.8749 24.8749C25.3624 24.3874 25.3624 23.5999 24.8749 23.1124L18.7624 16.9999L24.8749 10.8874C25.3499 10.4124 25.3499 9.61238 24.8749 9.13738Z" fill="#282828"/>
<circle cx="17" cy="17" r="16" stroke="#282828" stroke-width="2"/>
</svg>
