<svg width="38" height="38" viewBox="0 0 38 38" fill="none" xmlns="http://www.w3.org/2000/svg">
<path fill-rule="evenodd" clip-rule="evenodd" d="M19 0C8.512 0 0 8.512 0 19C0 29.488 8.512 38 19 38C29.488 38 38 29.488 38 19C38 8.512 29.488 0 19 0ZM19 5.7C22.154 5.7 24.7 8.24597 24.7 11.3999C24.7 14.5539 22.154 17.0999 19 17.0999C15.846 17.0999 13.3 14.5539 13.3 11.3999C13.3 8.24597 15.846 5.7 19 5.7ZM7.6 26.5621C10.051 30.2481 14.25 32.6801 19 32.6801C23.75 32.6801 27.949 30.2481 30.4 26.5621C30.343 22.7811 22.781 20.7101 19 20.7101C15.2 20.7101 7.657 22.7811 7.6 26.5621Z" fill="#282828"/>
</svg>
