<svg width="24" height="24" viewBox="0 0 24 24" fill="none" xmlns="http://www.w3.org/2000/svg">
<path fill-rule="evenodd" clip-rule="evenodd" d="M22.5999 12.71L19.9999 15.31V19C19.9999 19.55 19.5499 20 18.9999 20H15.2999L12.6999 22.6C12.3099 22.99 11.6799 22.99 11.2899 22.6L8.68992 20H4.99992C4.44992 20 3.99992 19.55 3.99992 19V15.3L1.39992 12.7C1.00992 12.31 1.00992 11.68 1.39992 11.29L3.99992 8.69V5C3.99992 4.45 4.44992 4 4.99992 4H8.68992L11.2999 1.4C11.4868 1.21275 11.7404 1.10751 12.0049 1.10751C12.2694 1.10751 12.5231 1.21275 12.7099 1.4L15.3099 4H18.9999C19.5499 4 19.9999 4.45 19.9999 5V8.69L22.5999 11.3C22.9899 11.69 22.9899 12.32 22.5999 12.71ZM5.99992 12C5.99992 15.31 8.68992 18 11.9999 18C15.3099 18 17.9999 15.31 17.9999 12C17.9999 8.69 15.3099 6 11.9999 6C8.68992 6 5.99992 8.69 5.99992 12Z" fill="#F8F8F8"/>
</svg>
