<svg width="30" height="30" viewBox="0 0 30 30" fill="none" xmlns="http://www.w3.org/2000/svg">
<circle cx="15" cy="15" r="15" fill="#282828"/>
<path d="M15 8.53846C11.4375 8.53846 8.53846 11.4375 8.53846 15C8.53846 18.5625 11.4375 21.4615 15 21.4615C18.5625 21.4615 21.4615 18.5625 21.4615 15C21.4615 11.4375 18.5625 8.53846 15 8.53846ZM15 19.6154C12.4507 19.6154 10.3846 17.5493 10.3846 15C10.3846 12.4507 12.4507 10.3846 15 10.3846C17.5493 10.3846 19.6154 12.4507 19.6154 15C19.6154 17.5493 17.5493 19.6154 15 19.6154ZM15 6.69231C15.5096 6.69231 15.9231 6.27883 15.9231 5.76923V3.92308C15.9231 3.41348 15.5096 3 15 3C14.4904 3 14.0769 3.41348 14.0769 3.92308V5.76923C14.0769 6.27883 14.4904 6.69231 15 6.69231ZM15 23.3077C14.4904 23.3077 14.0769 23.7212 14.0769 24.2308V26.0769C14.0769 26.5865 14.4904 27 15 27C15.5096 27 15.9231 26.5865 15.9231 26.0769V24.2308C15.9231 23.7212 15.5096 23.3077 15 23.3077ZM22.1791 9.12502L23.4844 7.81973C23.845 7.45915 23.845 6.87502 23.4844 6.51444C23.1238 6.15387 22.5397 6.15387 22.1791 6.51444L20.8738 7.81973C20.5132 8.18031 20.5132 8.76444 20.8738 9.12502C21.2344 9.4856 21.8185 9.4856 22.1791 9.12502ZM7.82088 20.875L6.5156 22.1803C6.15502 22.5408 6.15502 23.125 6.5156 23.4856C6.87617 23.8461 7.46031 23.8461 7.82088 23.4856L9.12617 22.1803C9.48675 21.8185 9.48675 21.2356 9.12617 20.875C8.76565 20.5144 8.18146 20.5132 7.82088 20.875ZM6.69231 15C6.69231 14.4904 6.27883 14.0769 5.76923 14.0769H3.92308C3.41348 14.0769 3 14.4904 3 15C3 15.5096 3.41348 15.9231 3.92308 15.9231H5.76923C6.27883 15.9231 6.69231 15.5096 6.69231 15ZM26.0769 14.0769H24.2308C23.7212 14.0769 23.3077 14.4904 23.3077 15C23.3077 15.5096 23.7212 15.9231 24.2308 15.9231H26.0769C26.5865 15.9231 27 15.5096 27 15C27 14.4904 26.5865 14.0769 26.0769 14.0769ZM7.81967 9.12502C8.18031 9.4856 8.76444 9.4856 9.12496 9.12502C9.4856 8.76444 9.4856 8.18031 9.12496 7.81973L7.81967 6.51444C7.4591 6.15387 6.87502 6.15387 6.51438 6.51444C6.15381 6.87502 6.15381 7.45915 6.51438 7.81973L7.81967 9.12502ZM22.1803 20.8738C21.8185 20.5132 21.2356 20.5132 20.875 20.8738C20.5144 21.2343 20.5133 21.8185 20.875 22.1791L22.1803 23.4843C22.5408 23.8449 23.125 23.8449 23.4856 23.4843C23.8461 23.1238 23.8461 22.5396 23.4856 22.1791L22.1803 20.8738Z" fill="#F8F8F8"/>
</svg>
